<svg id="Layer_1" data-name="Layer 1" xmlns="http://www.w3.org/2000/svg" viewBox="0 0 100 100">
  <defs>
    <style>
      .cls-1, .cls-2 {
        fill: #cb3727;
      }

      .cls-2 {
        font-size: 17.93px;
        font-family: Montserrat-BoldItalic, Montserrat;
        font-weight: 700;
        font-style: italic;
      }

      .cls-3 {
        letter-spacing: 0.01em;
      }

      .cls-4 {
        letter-spacing: 0em;
      }
    </style>
  </defs>
  <title>envelope</title>
  <path class="cls-1" d="M90.5,39.59V87.36a.72.72,0,0,0-.11.19c-.9,3.59-3.56,5.57-7.5,5.57H17.31A9.13,9.13,0,0,1,15.74,93a6.86,6.86,0,0,1-6.06-6.86V45.27c0-1.63,0-3.25,0-4.87A6.83,6.83,0,0,1,15.51,34a9.88,9.88,0,0,1,1.72-.12H83a7.22,7.22,0,0,1,7,4.1A11.76,11.76,0,0,1,90.5,39.59ZM50,39.19H17.8c-.27,0-.53,0-.79,0-1,.06-1.57.56-1.53,1.51a17.26,17.26,0,0,0,.3,2.78c.8,3.83,3.18,6.71,6.39,9.09,6.37,4.71,12.72,9.45,19.1,14.14,1.92,1.41,3.88,2.78,5.92,4a5.44,5.44,0,0,0,5.75,0A39.52,39.52,0,0,0,57,68.18c6.79-5,13.53-10.08,20.32-15.09A22.87,22.87,0,0,0,83,47a9.79,9.79,0,0,0,1.65-6.47,1.24,1.24,0,0,0-1.24-1.28,8,8,0,0,0-1.09-.08Zm34.72,15c-1.29,1.06-2.41,2.06-3.62,3Q72.07,63.9,63,70.6a70.54,70.54,0,0,1-5.83,4.14c-2.77,1.64-5.8,2.73-9.19,2a18.06,18.06,0,0,1-6.88-3.18Q34,68.26,27,62.9c-3.77-2.87-7.89-5.33-11.3-8.61,0,0-.09,0-.21,0V85.74c0,1.63.39,2,2.12,2h65c1.7,0,2.1-.37,2.1-1.94V54.21Z"/>
  <text class="cls-2" transform="translate(3.75 25.89)">E<tspan class="cls-3" x="12.03" y="0">m</tspan><tspan class="cls-4" x="30.94" y="0">ail </tspan><tspan class="cls-3" x="59.16" y="0">m</tspan><tspan x="78.07" y="0">e!</tspan></text>
</svg>
