<svg id="Layer_1" data-name="Layer 1" xmlns="http://www.w3.org/2000/svg" viewBox="0 0 110.16 110"><defs><style>.cls-1{fill:#a87c4f;}.cls-2{fill:#a3d28e;}.cls-3{fill:#f6921e;}</style></defs><title>Artboard 1</title><path class="cls-1" d="M65,24.1l3.34-8.55a1.25,1.25,0,0,1,.35-.57,1.37,1.37,0,0,1,.63-.19L76.47,14c-.15,4-3.13,7.3-3.41,11.28Z"/><path class="cls-2" d="M72.78,25.88c-2.87-2.21,2.63-6.89,6-7.91,3.12-.95,6.64-.1,9.82-.84A9.61,9.61,0,0,0,93.74,14a10.37,10.37,0,0,1-3.27,10.09,15.28,15.28,0,0,1-10.24,3.49C78.11,27.58,74.52,27.22,72.78,25.88Z"/><path class="cls-3" d="M46.48,26.72a40.81,40.81,0,0,0-12.93,8.05C18.05,49.2,18.84,70.2,18.94,71.83c.11,1.89.56,5.73.56,5.73.43,2.63,1.73,9,6.61,13.63a23,23,0,0,0,7.75,4.52c15.72,5.35,48-6,54.45-29.39C92.73,50.18,89.68,41,85,34.1c-5-7.32-12.23-9.6-21.15-10.21A39.37,39.37,0,0,0,46.48,26.72Z"/></svg>