<svg id="Layer_1" data-name="Layer 1" xmlns="http://www.w3.org/2000/svg" viewBox="0 0 705 135">
  <defs>
    <style>
      .cls-1 {
        fill: #9cf;
      }

      .cls-2 {
        fill: #fc9;
      }

      .cls-3 {
        fill: #f96;
      }

      .cls-4 {
        font-size: 94px;
        fill: #036;
        font-family: Caveat-Regular, Caveat;
      }

      .cls-5 {
        letter-spacing: -0.03em;
      }

      .cls-6 {
        letter-spacing: 0.01em;
      }
    </style>
  </defs>
  <title>mangologo</title>
  <g>
    <polygon class="cls-1" points="115.85 31.95 105 31.95 107.55 7.43 115.85 4.29 115.85 31.95"/>
    <path class="cls-1" d="M111.73,33.28c.72-1,2.4-6.78,2.86-7.65,4.91-9.21,17.92-12.4,26.95-8,2.09,1,4.05,2.48,6.49,2.7a2,2,0,0,0,.07.23c-1.23,2.57-2.09,5.73-3.53,8.19-5.79,9.9-14.14,13.08-25.23,9.82"/>
    <path class="cls-2" d="M113.61,30.81s-1.48-.52-3.34,1.55c-2.11,2.36-4.71,4.27-7,6.5C97,45,90.46,50.92,84,56.92,71.29,68.79,58.73,80.84,46.09,92.8,39,99.51,31.86,106.17,24.76,112.87c-.71.67-.93,1.59-2,1.48-6.5-3-12.77-7.61-14.78-14.47-.68-2.29-1.5-7.77-.54-10.21,2.11-5.41,5.84-8.23,9.83-12.16A62.15,62.15,0,0,0,32.2,54.8c4.11-10.88,9.88-20.72,19.24-28,15.13-11.81,42.85-8.42,55.1-2.1C108.62,25.74,113.61,30.81,113.61,30.81Z"/>
    <path class="cls-3" d="M22.76,114.19a8.56,8.56,0,0,0,2-1.48C31.86,106,39,99.35,46.09,92.64c12.64-12,25.2-24,37.93-35.88,6.44-6,13-11.89,19.27-18.06,2.27-2.23,4.87-4.14,7-6.5,1.86-2.07,3.28-2.24,5,0a47.13,47.13,0,0,1,8.94,25.76c.67,17.31-6.28,31.32-18.83,42.82S78.15,120,61,121.91c-12.84,1.46-26.67-1.65-38.23-7.72Z"/>
  </g>
  <text class="cls-4" transform="translate(145.92 111.15)"><tspan class="cls-5">V</tspan><tspan x="43.24" y="0">eronica Man</tspan><tspan class="cls-6" x="448.94" y="0">g</tspan><tspan x="483.25" y="0">io</tspan></text>
</svg>
