<svg id="Layer_1" data-name="Layer 1" xmlns="http://www.w3.org/2000/svg" viewBox="0 0 792.35 151.38">
  <defs>
    <style>
      .cls-1 {
        fill: #9cf;
      }

      .cls-2 {
        fill: #fc9;
      }

      .cls-3 {
        fill: #f96;
      }

      .cls-4 {
        font-size: 104px;
        fill: #036;
        font-family: Caveat-Regular, Caveat;
      }

      .cls-5 {
        letter-spacing: -0.03em;
      }

      .cls-6 {
        letter-spacing: 0.01em;
      }
    </style>
  </defs>
  <title>VM</title>
  <g>
    <polygon class="cls-1" points="139.2 44.86 128.35 44.86 130.9 20.33 140.2 17.2 139.2 44.86"/>
    <path class="cls-1" d="M135.08,46.18c.73-1,2.41-6.78,2.87-7.64,4.9-9.21,18.91-12.41,28-8,2.08,1,4,2.48,6.48,2.7.09.23,0,0,.07.23-1.22,2.57-2.09,5.73-3.52,8.18-5.8,9.91-15.15,13.09-26.23,9.82"/>
    <path class="cls-2" d="M137,43.71s-1.49-.52-3.35,1.56c-2.11,2.36-4.71,4.27-7,6.49-6.28,6.17-12.83,12.06-19.27,18.07C94.64,81.69,82.09,93.75,69.44,105.71c-7.09,6.71-14.22,13.37-21.33,20.07-.71.67-.93,1.58-2,1.48-6.5-3-12.76-7.61-14.78-14.47-.68-2.29-1.5-7.77-.54-10.22,2.11-5.4,5.84-8.23,9.83-12.15A62.38,62.38,0,0,0,55.56,67.71c4.1-10.88,9.87-20.72,19.23-28,15.13-11.82,42.85-8.43,55.1-2.1C132,38.65,137,43.71,137,43.71Z"/>
    <path class="cls-3" d="M46.11,127.1a8.85,8.85,0,0,0,2-1.48c7.11-6.7,14.24-13.36,21.33-20.07,12.65-12,25.2-24,37.93-35.88,6.44-6,13-11.9,19.27-18.06,2.27-2.23,4.87-4.14,7-6.5,1.86-2.08,3.29-2.24,4.95,0a47.2,47.2,0,0,1,9,25.77c.66,17.31-6.29,31.31-18.83,42.82s-26.18,19.2-43.35,21.15c-12.83,1.45-27.66-1.66-39.23-7.72Z"/>
  </g>
  <text class="cls-4" transform="translate(172.83 120.93)"><tspan class="cls-5">V</tspan><tspan x="47.84" y="0">eronica Man</tspan><tspan class="cls-6" x="496.7" y="0">g</tspan><tspan x="534.66" y="0">io</tspan></text>
</svg>
