<svg id="Layer_1" data-name="Layer 1" xmlns="http://www.w3.org/2000/svg" viewBox="0 0 500 619.33"><defs><style>.cls-1{fill:#9fc9eb;}.cls-2{fill:#fdcd9a;}.cls-3{fill:#f79869;}.cls-4{font-size:114.55px;font-family:Caveat-Regular, Caveat;}.cls-10,.cls-4,.cls-6{fill:#1b3665;}.cls-5{letter-spacing:0.01em;}.cls-10,.cls-6{font-size:36px;font-family:Montserrat-Light, Montserrat;}.cls-7{letter-spacing:-0.02em;}.cls-8{letter-spacing:0em;}.cls-9{letter-spacing:-0.01em;}.cls-10{letter-spacing:-0.02em;}.cls-11{letter-spacing:0em;}.cls-12{letter-spacing:-0.01em;}.cls-13{letter-spacing:-0.02em;}.cls-14,.cls-15{fill:none;stroke:#cd3727;stroke-miterlimit:10;}.cls-14{stroke-width:1.5px;stroke-dasharray:9.97 9.97;}.cls-15{stroke-linecap:round;stroke-width:2.5px;}.cls-16{font-size:38px;fill:#cd3727;font-family:Montserrat-Regular, Montserrat;}.cls-17{letter-spacing:-0.01em;}.cls-18{letter-spacing:-0.02em;}.cls-19{letter-spacing:-0.01em;}</style></defs><title>work-01</title><polygon class="cls-1" points="310 45.52 295.68 45.52 299.05 13.16 310 9.02 310 45.52"/><path class="cls-1" d="M304.57,47.27c.95-1.33,3.17-8.94,3.78-10.08C314.82,25,332,20.82,343.91,26.68c2.75,1.35,5.34,3.28,8.56,3.56.11.32,0,0,.09.3-1.62,3.4-2.76,7.57-4.65,10.81-7.65,13.07-18.67,17.27-33.3,13"/><path class="cls-2" d="M307.05,44s-2-.68-4.41,2.06c-2.78,3.11-6.21,5.63-9.21,8.57C285.14,62.78,276.5,70.55,268,78.47,251.2,94.13,234.64,110,218,125.82c-9.36,8.85-18.77,17.64-28.14,26.48-.94.89-1.23,2.09-2.64,1.95-8.58-3.93-16.84-10-19.51-19.09-.89-3-2-10.25-.71-13.48,2.79-7.13,7.71-10.86,13-16a82.32,82.32,0,0,0,19.7-30c5.42-14.36,13-27.34,25.38-37,20-15.59,56.55-11.12,72.71-2.77C300.47,37.33,307.05,44,307.05,44Z"/><path class="cls-3" d="M187.17,154a11.4,11.4,0,0,0,2.64-1.95c9.37-8.84,18.78-17.63,28.14-26.48C234.64,109.83,251.2,93.92,268,78.26c8.5-7.92,17.14-15.69,25.43-23.83,3-2.94,6.43-5.46,9.21-8.57,2.45-2.74,4.33-3,6.53,0a62.21,62.21,0,0,1,11.81,34c.87,22.84-8.3,41.32-24.85,56.5s-35.87,25.35-58.51,27.91c-16.94,1.92-35.19-2.18-50.45-10.19Z"/><text class="cls-4" transform="translate(35.55 227.18)">mango<tspan class="cls-5" x="246.86" y="0">k</tspan><tspan x="289.82" y="0">ick</tspan></text><text class="cls-6" transform="translate(55.68 262.73) scale(1.05 1)">it<tspan class="cls-7" x="23.72" y="0">’</tspan><tspan x="30.35" y="0">s </tspan><tspan class="cls-8" x="56.81" y="0">n</tspan><tspan class="cls-9" x="81.07" y="0">e</tspan><tspan x="102.02" y="0">at</tspan></text><text class="cls-6" transform="translate(199.88 262.73)"><tspan xml:space="preserve">     </tspan></text><text class="cls-10" transform="translate(246.14 262.73) scale(0.95 1)">t<tspan class="cls-11" x="13.5" y="0">o be </tspan><tspan class="cls-12" x="99.39" y="0">s</tspan><tspan class="cls-13" x="116.1" y="0">w</tspan><tspan class="cls-11" x="146.45" y="0">eet</tspan></text><circle class="cls-14" cx="246" cy="401.67" r="66.67" transform="translate(-211.97 291.59) rotate(-45)"/><line class="cls-15" x1="245.77" y1="361.03" x2="245.83" y2="440.09"/><polyline class="cls-15" points="222.56 414.7 245.19 440.38 246.5 440.34 269.13 414.67"/><text class="cls-16" transform="translate(126.33 529.53)">see <tspan class="cls-17" x="74.44" y="0">m</tspan><tspan x="114.38" y="0">y </tspan><tspan class="cls-18" x="144.93" y="0">w</tspan><tspan x="177.76" y="0">o</tspan><tspan class="cls-19" x="201.59" y="0">r</tspan><tspan x="216.52" y="0">k!</tspan></text></svg>